name Run_20002_GRF.mot
datacolumns 19
datarows 23
range 0.772 0.794
endheader
time	     ground_force_vx	     ground_force_vy	     ground_force_vz	     ground_force_px	     ground_force_py	     ground_force_pz	   l_ground_force_vx	   l_ground_force_vy	   l_ground_force_vz	   l_ground_force_px	   l_ground_force_py	   l_ground_force_pz	     ground_torque_x	     ground_torque_y	     ground_torque_z	   l_ground_torque_x	   l_ground_torque_y	   l_ground_torque_z	
0.772	          0.00000000	          0.00000000	          0.00000000	          0.00000000	          0.00000000	          0.00000000	         16.57849100	       1270.75451700	         38.91991400	          0.96542700	          0.00000000	         -0.38968900	          0.00000000	          0.00000000	          0.00000000	          0.00000000	          1.19029300	          0.00000000	
0.773	          0.00000000	          0.00000000	          0.00000000	          0.00000000	          0.00000000	          0.00000000	         18.45434600	       1262.65258800	         38.31243100	          0.96404100	          0.00000000	         -0.38962800	          0.00000000	          0.00000000	          0.00000000	          0.00000000	          1.33972700	          0.00000000	
0.774	          0.00000000	          0.00000000	          0.00000000	          0.00000000	          0.00000000	          0.00000000	         20.32328600	       1254.42041000	         37.66729400	          0.96265000	          0.00000000	         -0.38956500	          0.00000000	          0.00000000	          0.00000000	          0.00000000	          1.49087600	          0.00000000	
0.775	          0.00000000	          0.00000000	          0.00000000	          0.00000000	          0.00000000	          0.00000000	         22.18584300	       1246.06005900	         36.98542800	          0.96125000	          0.00000000	         -0.38949700	          0.00000000	          0.00000000	          0.00000000	          0.00000000	          1.64360000	          0.00000000	
0.776	          0.00000000	          0.00000000	          0.00000000	          0.00000000	          0.00000000	          0.00000000	         24.04187000	       1237.57373000	         36.26795200	          0.95984300	          0.00000000	         -0.38942600	          0.00000000	          0.00000000	          0.00000000	          0.00000000	          1.79775000	          0.00000000	
0.777	          0.00000000	          0.00000000	          0.00000000	          0.00000000	          0.00000000	          0.00000000	         25.89056000	       1228.96386700	         35.51615100	          0.95842900	          0.00000000	         -0.38935100	          0.00000000	          0.00000000	          0.00000000	          0.00000000	          1.95316900	          0.00000000	
0.778	          0.00000000	          0.00000000	          0.00000000	          0.00000000	          0.00000000	          0.00000000	         27.73049500	       1220.23291000	         34.73146100	          0.95700700	          0.00000000	         -0.38927300	          0.00000000	          0.00000000	          0.00000000	          0.00000000	          2.10969200	          0.00000000	
0.779	          0.00000000	          0.00000000	          0.00000000	          0.00000000	          0.00000000	          0.00000000	         29.55973400	       1211.38354500	         33.91547400	          0.95557900	          0.00000000	         -0.38919100	          0.00000000	          0.00000000	          0.00000000	          0.00000000	          2.26714700	          0.00000000	
0.78	          0.00000000	          0.00000000	          0.00000000	          0.00000000	          0.00000000	          0.00000000	         31.37590200	       1202.41870100	         33.06992700	          0.95414500	          0.00000000	         -0.38910600	          0.00000000	          0.00000000	          0.00000000	          0.00000000	          2.42535400	          0.00000000	
0.781	          0.00000000	          0.00000000	          0.00000000	          0.00000000	          0.00000000	          0.00000000	         33.17630400	       1193.34143100	         32.19668600	          0.95270500	          0.00000000	         -0.38901700	          0.00000000	          0.00000000	          0.00000000	          0.00000000	          2.58412500	          0.00000000	
0.782	          0.00000000	          0.00000000	          0.00000000	          0.00000000	          0.00000000	          0.00000000	         34.95803500	       1184.15515100	         31.29774100	          0.95126200	          0.00000000	         -0.38892600	          0.00000000	          0.00000000	          0.00000000	          0.00000000	          2.74326800	          0.00000000	
0.783	          0.00000000	          0.00000000	          0.00000000	          0.00000000	          0.00000000	          0.00000000	         36.71809400	       1174.86328100	         30.37519300	          0.94981400	          0.00000000	         -0.38883200	          0.00000000	          0.00000000	          0.00000000	          0.00000000	          2.90258200	          0.00000000	
0.784	          0.00000000	          0.00000000	          0.00000000	          0.00000000	          0.00000000	          0.00000000	         38.45349500	       1165.46984900	         29.43123800	          0.94836400	          0.00000000	         -0.38873400	          0.00000000	          0.00000000	          0.00000000	          0.00000000	          3.06186100	          0.00000000	
0.785	          0.00000000	          0.00000000	          0.00000000	          0.00000000	          0.00000000	          0.00000000	         40.16134600	       1155.97863800	         28.46816400	          0.94691300	          0.00000000	         -0.38863400	          0.00000000	          0.00000000	          0.00000000	          0.00000000	          3.22089600	          0.00000000	
0.786	          0.00000000	          0.00000000	          0.00000000	          0.00000000	          0.00000000	          0.00000000	         41.83892800	       1146.39416500	         27.48832900	          0.94546200	          0.00000000	         -0.38853200	          0.00000000	          0.00000000	          0.00000000	          0.00000000	          3.37947100	          0.00000000	
0.787	          0.00000000	          0.00000000	          0.00000000	          0.00000000	          0.00000000	          0.00000000	         43.48376500	       1136.72082500	         26.49414300	          0.94401200	          0.00000000	         -0.38842700	          0.00000000	          0.00000000	          0.00000000	          0.00000000	          3.53736800	          0.00000000	
0.788	          0.00000000	          0.00000000	          0.00000000	          0.00000000	          0.00000000	          0.00000000	         45.09367400	       1126.96350100	         25.48805800	          0.94256300	          0.00000000	         -0.38832000	          0.00000000	          0.00000000	          0.00000000	          0.00000000	          3.69436500	          0.00000000	
0.789	          0.00000000	          0.00000000	          0.00000000	          0.00000000	          0.00000000	          0.00000000	         46.66680500	       1117.12719700	         24.47255300	          0.94111800	          0.00000000	         -0.38821000	          0.00000000	          0.00000000	          0.00000000	          0.00000000	          3.85023800	          0.00000000	
0.79	          0.00000000	          0.00000000	          0.00000000	          0.00000000	          0.00000000	          0.00000000	         48.20167200	       1107.21691900	         23.45011300	          0.93967600	          0.00000000	         -0.38809800	          0.00000000	          0.00000000	          0.00000000	          0.00000000	          4.00476200	          0.00000000	
0.791	          0.00000000	          0.00000000	          0.00000000	          0.00000000	          0.00000000	          0.00000000	         49.69717800	       1097.23815900	         22.42321000	          0.93823900	          0.00000000	         -0.38798400	          0.00000000	          0.00000000	          0.00000000	          0.00000000	          4.15771000	          0.00000000	
0.792	          0.00000000	          0.00000000	          0.00000000	          0.00000000	          0.00000000	          0.00000000	         51.15263700	       1087.19616700	         21.39429300	          0.93680800	          0.00000000	         -0.38786700	          0.00000000	          0.00000000	          0.00000000	          0.00000000	          4.30885600	          0.00000000	
0.793	          0.00000000	          0.00000000	          0.00000000	          0.00000000	          0.00000000	          0.00000000	         52.56779900	       1077.09655800	         20.36576100	          0.93538300	          0.00000000	         -0.38774800	          0.00000000	          0.00000000	          0.00000000	          0.00000000	          4.45797600	          0.00000000	
0.794	          0.00000000	          0.00000000	          0.00000000	          0.00000000	          0.00000000	          0.00000000	         53.94283300	       1066.94482400	         19.33996200	          0.93396400	          0.00000000	         -0.38762700	          0.00000000	          0.00000000	          0.00000000	          0.00000000	          4.60484600	          0.00000000	
